<?xml version="1.0" encoding="iso-8859-1"?>
<!-- Generator: Adobe Illustrator 19.0.0, SVG Export Plug-In . SVG Version: 6.00 Build 0)  -->
<svg version="1.1" id="Layer_1" xmlns="http://www.w3.org/2000/svg" xmlns:xlink="http://www.w3.org/1999/xlink" x="0px" y="0px"
	 viewBox="0 0 511.999 511.999" style="enable-background:new 0 0 511.999 511.999;" xml:space="preserve">
<g>
	<g>
		<path d="M387.496,235.271c-4.36-0.746-8.508,2.184-9.257,6.547l-12.46,72.685c-0.747,4.364,2.184,8.508,6.547,9.257
			c0.459,0.078,0.914,0.115,1.364,0.115c3.833,0,7.223-2.758,7.893-6.662l12.46-72.685
			C394.791,240.165,391.859,236.021,387.496,235.271z"/>
	</g>
</g>
<g>
	<g>
		<path d="M408.544,120.207l-51.582-17.856c-4.184-1.447-8.75,0.771-10.197,4.953c-1.449,4.183,0.77,8.748,4.953,10.196
			l45.152,15.632l-6.905,40.278c-0.747,4.364,2.184,8.508,6.547,9.257c0.459,0.078,0.914,0.115,1.364,0.115
			c3.833,0,7.223-2.758,7.893-6.662l8.054-46.983C414.486,125.269,412.252,121.49,408.544,120.207z"/>
	</g>
</g>
<g>
	<g>
		<path d="M335.578,94.948l-34.208-11.841c-4.186-1.448-8.75,0.77-10.197,4.953c-1.448,4.184,0.77,8.749,4.953,10.197l34.208,11.841
			c0.869,0.3,1.753,0.444,2.622,0.444c3.322,0,6.428-2.08,7.575-5.397C341.98,100.962,339.762,96.395,335.578,94.948z"/>
	</g>
</g>
<g>
	<g>
		<path d="M270.481,223.59c23.349-6.376,40.567-27.759,40.567-53.102c0-30.354-24.695-55.048-55.048-55.048
			s-55.048,24.694-55.048,55.048c0,25.342,17.218,46.726,40.567,53.102c-39.979,6.896-70.496,41.798-70.496,83.717v42.756
			c0,4.428,3.589,8.017,8.017,8.017H332.96c4.428,0,8.017-3.588,8.017-8.017v-42.756C340.976,265.388,310.46,230.487,270.481,223.59
			z M216.985,170.489c0-21.513,17.502-39.015,39.015-39.015s39.015,17.502,39.015,39.015s-17.502,39.015-39.015,39.015
			S216.985,192.001,216.985,170.489z M324.943,342.046H187.056v-34.739c0-38.015,30.928-68.944,68.944-68.944
			s68.944,30.928,68.944,68.944V342.046z"/>
	</g>
</g>
<g>
	<g>
		<path d="M444.747,98.805L258.62,34.376c-1.697-0.589-3.546-0.589-5.244,0L67.25,98.805c-3.708,1.283-5.942,5.062-5.278,8.93
			l44.449,259.288c0.361,2.109,1.551,3.985,3.304,5.213l141.676,99.173c1.38,0.965,2.989,1.448,4.597,1.448
			c1.609,0,3.217-0.483,4.597-1.448l141.678-99.173c1.754-1.227,2.943-3.104,3.305-5.213l44.449-259.288
			C450.69,103.867,448.456,100.087,444.747,98.805z M390.341,361.017l-134.342,94.038l-134.341-94.038L78.923,111.73l177.076-61.296
			l177.075,61.296L390.341,361.017z"/>
	</g>
</g>
<g>
	<g>
		<path d="M480.951,77.402l-222.33-76.96c-1.7-0.589-3.546-0.589-5.244,0l-222.33,76.96c-3.708,1.283-5.943,5.061-5.279,8.93
			l51.307,299.29c0.361,2.109,1.551,3.985,3.304,5.213l171.023,119.716c1.38,0.965,2.989,1.448,4.597,1.448
			c1.609,0,3.217-0.483,4.597-1.448L431.62,390.835c1.754-1.227,2.943-3.104,3.305-5.213l51.307-299.29
			C486.894,82.463,484.66,78.685,480.951,77.402z M419.686,379.617L255.999,494.198L92.313,379.617L42.72,90.328L255.999,16.5
			l213.278,73.827L419.686,379.617z"/>
	</g>
</g>
<g>
</g>
<g>
</g>
<g>
</g>
<g>
</g>
<g>
</g>
<g>
</g>
<g>
</g>
<g>
</g>
<g>
</g>
<g>
</g>
<g>
</g>
<g>
</g>
<g>
</g>
<g>
</g>
<g>
</g>
</svg>
